<svg version="1.1" id="Layer_1" xmlns="http://www.w3.org/2000/svg" xmlns:xlink="http://www.w3.org/1999/xlink" x="0px" y="0px"
	 width="100%" viewBox="0 0 3840 3840" enable-background="new 0 0 3840 3840" xml:space="preserve">
<path fill="#000000" opacity="0.000000" stroke="none" 
	d="
M2220.000000,3842.000000 
	C1480.000000,3842.000000 741.000000,3842.000000 2.000000,3842.000000 
	C2.000000,2562.000000 2.000000,1282.000000 2.000000,2.000000 
	C1282.000000,2.000000 2562.000000,2.000000 3842.000000,2.000000 
	C3842.000000,1282.000000 3842.000000,2562.000000 3842.000000,3842.000000 
	C3301.666748,3842.000000 2761.333252,3842.000000 2220.000000,3842.000000 
M1963.201294,1344.255615 
	C1933.423706,1365.493774 1903.637451,1386.719849 1873.870117,1407.972290 
	C1803.790283,1458.005981 1733.706909,1508.034424 1663.662598,1558.117798 
	C1655.459229,1563.983276 1648.819946,1571.244263 1643.880249,1580.214111 
	C1637.004272,1592.699951 1636.490112,1606.368652 1636.456055,1619.872925 
	C1636.036987,1786.157837 1635.848145,1952.443359 1635.673462,2118.728760 
	C1635.588745,2199.380859 1635.909790,2280.034180 1635.531128,2360.684570 
	C1635.385986,2391.574707 1659.571899,2422.254395 1697.180176,2421.507812 
	C1734.150879,2420.774170 1756.390503,2390.573486 1756.443481,2361.317871 
	C1756.605713,2271.724609 1757.483521,2182.132812 1757.613770,2092.539551 
	C1757.827271,1945.566406 1757.671631,1798.592773 1757.671631,1651.619385 
	C1757.671631,1647.963501 1757.671631,1644.307739 1757.671631,1640.937378 
	C1770.866577,1628.852051 2120.531738,1380.366211 2127.099121,1378.343872 
	C2129.179443,1403.831421 2128.205322,1850.145874 2125.954102,1857.651611 
	C2124.416504,1857.079224 2122.872803,1856.580322 2121.389404,1855.941406 
	C2070.783447,1834.143677 2020.165771,1812.373901 1969.598145,1790.488281 
	C1959.365601,1786.059570 1948.907471,1783.834595 1937.677612,1784.250977 
	C1903.521729,1785.517944 1881.381836,1816.820190 1881.486328,1840.890137 
	C1881.904175,1937.204224 1881.633667,2033.521240 1881.736328,2129.837158 
	C1881.741211,2134.417725 1882.436401,2139.108398 1883.560059,2143.558594 
	C1889.409424,2166.726807 1914.060913,2186.836914 1942.435669,2186.888916 
	C1971.253174,2186.941406 2002.204590,2160.807129 2001.846924,2127.002441 
	C2001.219116,2067.686768 2001.671631,2008.359253 2001.671631,1949.036621 
	C2001.671631,1945.433838 2001.671631,1941.830933 2001.671631,1937.200684 
	C2005.366089,1938.416138 2008.197144,1939.112793 2010.837891,1940.250977 
	C2059.611084,1961.272339 2108.408203,1982.238525 2157.079590,2003.493774 
	C2167.634033,2008.102905 2178.276367,2010.123291 2189.838135,2010.589722 
	C2216.770752,2011.676147 2247.726562,1985.973877 2247.714844,1952.592285 
	C2247.633301,1720.634277 2247.712402,1488.676147 2247.608643,1256.718140 
	C2247.598389,1233.738403 2236.518555,1216.456665 2216.755371,1205.605225 
	C2196.682373,1194.583618 2175.920166,1195.037354 2156.087158,1206.881226 
	C2147.546875,1211.981201 2139.661133,1218.186646 2131.540771,1223.978149 
	C2075.781494,1263.746338 2020.038818,1303.537964 1963.201294,1344.255615 
M1185.146606,2433.726562 
	C1190.757690,2433.262695 1196.360474,2432.604248 1201.981079,2432.366699 
	C1241.572632,2430.692871 1280.152100,2435.920654 1317.668701,2448.986572 
	C1356.028442,2462.346191 1393.145508,2478.626221 1429.515015,2496.575684 
	C1485.604980,2524.258057 1541.343994,2552.651611 1597.428833,2580.344482 
	C1632.014893,2597.421631 1667.527100,2612.404785 1703.951904,2625.197510 
	C1748.264038,2640.760742 1793.765137,2648.801758 1840.807617,2647.692139 
	C1864.080811,2647.142822 1887.372070,2647.135742 1910.629761,2646.229736 
	C1932.172241,2645.390625 1953.760620,2644.437012 1975.185791,2642.177490 
	C2007.479736,2638.771729 2039.790527,2635.049072 2071.824951,2629.814697 
	C2095.349609,2625.970459 2118.906006,2620.962891 2141.619873,2613.834961 
	C2175.052734,2603.343262 2185.228516,2574.281982 2183.130859,2548.437988 
	C2180.459961,2515.527588 2151.211670,2496.403809 2125.832031,2496.171875 
	C2115.268555,2496.075195 2105.636719,2499.444092 2095.580566,2501.416504 
	C2067.602295,2506.905029 2039.609009,2512.633057 2011.372925,2516.404785 
	C1980.194092,2520.569580 1948.793823,2523.683350 1917.388794,2525.373535 
	C1887.815918,2526.965088 1858.106934,2525.870605 1828.465820,2526.401367 
	C1805.265137,2526.816650 1782.859253,2522.658936 1760.792480,2516.081543 
	C1722.444946,2504.651367 1685.953613,2488.535889 1650.037109,2471.171387 
	C1615.001465,2454.233154 1580.372803,2436.453613 1545.570068,2419.033936 
	C1498.290649,2395.369385 1451.264282,2371.177979 1402.171997,2351.343506 
	C1351.132690,2330.722412 1299.133423,2314.123779 1243.504395,2311.953369 
	C1203.164673,2310.379150 1163.055664,2312.366699 1123.511475,2320.714600 
	C1044.887573,2337.312500 974.879761,2371.755859 913.419556,2423.552979 
	C894.296875,2439.668945 876.299500,2456.888672 860.981812,2476.743164 
	C849.786072,2491.254883 845.677429,2507.818604 849.144592,2525.610840 
	C853.972046,2550.383789 869.083069,2567.273438 893.527893,2572.987061 
	C917.453369,2578.579102 939.092224,2572.468262 955.589905,2552.834473 
	C959.222778,2548.511230 962.739319,2544.070801 966.617615,2539.976318 
	C996.736816,2508.177002 1032.087036,2483.659424 1071.579346,2464.969482 
	C1107.035522,2448.189697 1144.333496,2438.029785 1185.146606,2433.726562 
M2756.999756,2530.331787 
	C2799.904785,2530.781982 2842.758789,2529.525879 2885.354492,2524.198730 
	C2912.317383,2520.826660 2939.177002,2516.507568 2965.973389,2511.966797 
	C2986.853271,2508.428955 3010.095215,2490.840820 3013.395020,2458.273682 
	C3015.694336,2435.579834 3005.038818,2411.736572 2980.601074,2399.078857 
	C2966.381592,2391.713379 2951.453857,2391.154785 2936.009766,2394.466797 
	C2887.140869,2404.948242 2837.456543,2407.921875 2787.702881,2409.486572 
	C2767.125244,2410.133789 2746.469482,2409.117920 2725.876465,2408.228027 
	C2705.663330,2407.355225 2685.457031,2406.005127 2665.295898,2404.297119 
	C2615.375000,2400.067383 2567.153076,2387.542480 2519.643311,2372.483887 
	C2460.708008,2353.803467 2402.171387,2333.867676 2343.423584,2314.593018 
	C2286.883301,2296.042480 2229.773193,2279.630127 2170.780029,2270.805908 
	C2137.290771,2265.796875 2103.608643,2262.443604 2069.725830,2261.698730 
	C2032.459839,2260.879395 1995.281006,2262.228760 1958.372314,2267.799805 
	C1937.348511,2270.973145 1916.436157,2274.837891 1896.316650,2282.021973 
	C1867.720093,2292.233154 1851.816406,2318.729492 1856.858887,2349.179688 
	C1863.709839,2390.550781 1904.771362,2406.416260 1933.865479,2396.975342 
	C1966.364990,2386.429199 2000.206909,2383.971436 2034.028687,2382.471436 
	C2062.948730,2381.189209 2091.854492,2383.145996 2120.589600,2386.459229 
	C2140.006592,2388.697998 2159.398682,2391.544434 2178.602051,2395.174561 
	C2231.624023,2405.198486 2282.689941,2422.266357 2333.845703,2439.025635 
	C2394.161621,2458.785889 2454.451172,2478.657227 2515.087402,2497.395264 
	C2550.619385,2508.375244 2587.030518,2516.391113 2623.905273,2521.541748 
	C2667.360596,2527.611084 2711.115967,2530.161133 2756.999756,2530.331787 
z"/>
<path fill="#FEFEFE" opacity="1.000000" stroke="none" 
	d="
M1963.746094,1343.788818 
	C2020.038818,1303.537964 2075.781494,1263.746338 2131.540771,1223.978149 
	C2139.661133,1218.186646 2147.546875,1211.981201 2156.087158,1206.881226 
	C2175.920166,1195.037354 2196.682373,1194.583618 2216.755371,1205.605225 
	C2236.518555,1216.456665 2247.598389,1233.738403 2247.608643,1256.718140 
	C2247.712402,1488.676147 2247.633301,1720.634277 2247.714844,1952.592285 
	C2247.726562,1985.973877 2216.770752,2011.676147 2189.838135,2010.589722 
	C2178.276367,2010.123291 2167.634033,2008.102905 2157.079590,2003.493774 
	C2108.408203,1982.238525 2059.611084,1961.272339 2010.837891,1940.250977 
	C2008.197144,1939.112793 2005.366089,1938.416138 2001.671631,1937.200684 
	C2001.671631,1941.830933 2001.671631,1945.433838 2001.671631,1949.036621 
	C2001.671631,2008.359253 2001.219116,2067.686768 2001.846924,2127.002441 
	C2002.204590,2160.807129 1971.253174,2186.941406 1942.435669,2186.888916 
	C1914.060913,2186.836914 1889.409424,2166.726807 1883.560059,2143.558594 
	C1882.436401,2139.108398 1881.741211,2134.417725 1881.736328,2129.837158 
	C1881.633667,2033.521240 1881.904175,1937.204224 1881.486328,1840.890137 
	C1881.381836,1816.820190 1903.521729,1785.517944 1937.677612,1784.250977 
	C1948.907471,1783.834595 1959.365601,1786.059570 1969.598145,1790.488281 
	C2020.165771,1812.373901 2070.783447,1834.143677 2121.389404,1855.941406 
	C2122.872803,1856.580322 2124.416504,1857.079224 2125.954102,1857.651611 
	C2128.205322,1850.145874 2129.179443,1403.831421 2127.099121,1378.343872 
	C2120.531738,1380.366211 1770.866577,1628.852051 1757.671631,1640.937378 
	C1757.671631,1644.307739 1757.671631,1647.963501 1757.671631,1651.619385 
	C1757.671631,1798.592773 1757.827271,1945.566406 1757.613770,2092.539551 
	C1757.483521,2182.132812 1756.605713,2271.724609 1756.443481,2361.317871 
	C1756.390503,2390.573486 1734.150879,2420.774170 1697.180176,2421.507812 
	C1659.571899,2422.254395 1635.385986,2391.574707 1635.531128,2360.684570 
	C1635.909790,2280.034180 1635.588745,2199.380859 1635.673462,2118.728760 
	C1635.848145,1952.443359 1636.036987,1786.157837 1636.456055,1619.872925 
	C1636.490112,1606.368652 1637.004272,1592.699951 1643.880249,1580.214111 
	C1648.819946,1571.244263 1655.459229,1563.983276 1663.662598,1558.117798 
	C1733.706909,1508.034424 1803.790283,1458.005981 1873.870117,1407.972290 
	C1903.637451,1386.719849 1933.423706,1365.493774 1963.746094,1343.788818 
z"/>
<path fill="#00FEE2" opacity="1.000000" stroke="none" 
	d="
M1184.242310,2433.893555 
	C1144.333496,2438.029785 1107.035522,2448.189697 1071.579346,2464.969482 
	C1032.087036,2483.659424 996.736816,2508.177002 966.617615,2539.976318 
	C962.739319,2544.070801 959.222778,2548.511230 955.589905,2552.834473 
	C939.092224,2572.468262 917.453369,2578.579102 893.527893,2572.987061 
	C869.083069,2567.273438 853.972046,2550.383789 849.144592,2525.610840 
	C845.677429,2507.818604 849.786072,2491.254883 860.981812,2476.743164 
	C876.299500,2456.888672 894.296875,2439.668945 913.419556,2423.552979 
	C974.879761,2371.755859 1044.887573,2337.312500 1123.511475,2320.714600 
	C1163.055664,2312.366699 1203.164673,2310.379150 1243.504395,2311.953369 
	C1299.133423,2314.123779 1351.132690,2330.722412 1402.171997,2351.343506 
	C1451.264282,2371.177979 1498.290649,2395.369385 1545.570068,2419.033936 
	C1580.372803,2436.453613 1615.001465,2454.233154 1650.037109,2471.171387 
	C1685.953613,2488.535889 1722.444946,2504.651367 1760.792480,2516.081543 
	C1782.859253,2522.658936 1805.265137,2526.816650 1828.465820,2526.401367 
	C1858.106934,2525.870605 1887.815918,2526.965088 1917.388794,2525.373535 
	C1948.793823,2523.683350 1980.194092,2520.569580 2011.372925,2516.404785 
	C2039.609009,2512.633057 2067.602295,2506.905029 2095.580566,2501.416504 
	C2105.636719,2499.444092 2115.268555,2496.075195 2125.832031,2496.171875 
	C2151.211670,2496.403809 2180.459961,2515.527588 2183.130859,2548.437988 
	C2185.228516,2574.281982 2175.052734,2603.343262 2141.619873,2613.834961 
	C2118.906006,2620.962891 2095.349609,2625.970459 2071.824951,2629.814697 
	C2039.790527,2635.049072 2007.479736,2638.771729 1975.185791,2642.177490 
	C1953.760620,2644.437012 1932.172241,2645.390625 1910.629761,2646.229736 
	C1887.372070,2647.135742 1864.080811,2647.142822 1840.807617,2647.692139 
	C1793.765137,2648.801758 1748.264038,2640.760742 1703.951904,2625.197510 
	C1667.527100,2612.404785 1632.014893,2597.421631 1597.428833,2580.344482 
	C1541.343994,2552.651611 1485.604980,2524.258057 1429.515015,2496.575684 
	C1393.145508,2478.626221 1356.028442,2462.346191 1317.668701,2448.986572 
	C1280.152100,2435.920654 1241.572632,2430.692871 1201.981079,2432.366699 
	C1196.360474,2432.604248 1190.757690,2433.262695 1184.242310,2433.893555 
z"/>
<path fill="#00FEE2" opacity="1.000000" stroke="none" 
	d="
M2755.999512,2530.331787 
	C2711.115967,2530.161133 2667.360596,2527.611084 2623.905273,2521.541748 
	C2587.030518,2516.391113 2550.619385,2508.375244 2515.087402,2497.395264 
	C2454.451172,2478.657227 2394.161621,2458.785889 2333.845703,2439.025635 
	C2282.689941,2422.266357 2231.624023,2405.198486 2178.602051,2395.174561 
	C2159.398682,2391.544434 2140.006592,2388.697998 2120.589600,2386.459229 
	C2091.854492,2383.145996 2062.948730,2381.189209 2034.028687,2382.471436 
	C2000.206909,2383.971436 1966.364990,2386.429199 1933.865479,2396.975342 
	C1904.771362,2406.416260 1863.709839,2390.550781 1856.858887,2349.179688 
	C1851.816406,2318.729492 1867.720093,2292.233154 1896.316650,2282.021973 
	C1916.436157,2274.837891 1937.348511,2270.973145 1958.372314,2267.799805 
	C1995.281006,2262.228760 2032.459839,2260.879395 2069.725830,2261.698730 
	C2103.608643,2262.443604 2137.290771,2265.796875 2170.780029,2270.805908 
	C2229.773193,2279.630127 2286.883301,2296.042480 2343.423584,2314.593018 
	C2402.171387,2333.867676 2460.708008,2353.803467 2519.643311,2372.483887 
	C2567.153076,2387.542480 2615.375000,2400.067383 2665.295898,2404.297119 
	C2685.457031,2406.005127 2705.663330,2407.355225 2725.876465,2408.228027 
	C2746.469482,2409.117920 2767.125244,2410.133789 2787.702881,2409.486572 
	C2837.456543,2407.921875 2887.140869,2404.948242 2936.009766,2394.466797 
	C2951.453857,2391.154785 2966.381592,2391.713379 2980.601074,2399.078857 
	C3005.038818,2411.736572 3015.694336,2435.579834 3013.395020,2458.273682 
	C3010.095215,2490.840820 2986.853271,2508.428955 2965.973389,2511.966797 
	C2939.177002,2516.507568 2912.317383,2520.826660 2885.354492,2524.198730 
	C2842.758789,2529.525879 2799.904785,2530.781982 2755.999512,2530.331787 
z"/>
</svg>