<svg version="1.1" id="Layer_1" xmlns="http://www.w3.org/2000/svg" xmlns:xlink="http://www.w3.org/1999/xlink" x="0px" y="0px"
	 width="100%" viewBox="0 0 3840 3840" enable-background="new 0 0 3840 3840" xml:space="preserve">
<path fill="#252525" opacity="1.000000" stroke="none" 
	d="
M1822.000000,2.000000 
	C1887.375122,2.000000 1952.750244,2.000000 2019.257690,2.776781 
	C2022.436768,4.342873 2024.447388,5.696094 2026.536255,5.830293 
	C2040.445801,6.723848 2054.376221,7.285862 2068.291748,8.097185 
	C2079.226562,8.734727 2090.182373,9.261023 2101.069580,10.402879 
	C2115.897949,11.958094 2130.661133,14.126570 2145.468506,15.896150 
	C2164.237793,18.139229 2183.079102,19.853758 2201.786621,22.518034 
	C2221.807373,25.369339 2241.783691,28.669060 2261.642578,32.484772 
	C2285.740967,37.115067 2309.779541,42.127304 2333.692383,47.633324 
	C2364.698242,54.772480 2395.729004,61.919304 2426.427734,70.246307 
	C2459.105957,79.110176 2491.565674,88.867348 2523.823975,99.163879 
	C2546.878662,106.522736 2569.538086,115.164406 2592.202393,123.689529 
	C2617.657227,133.264236 2643.162109,142.774475 2668.210693,153.343369 
	C2712.026367,171.830917 2755.360596,191.463913 2797.365479,213.810165 
	C2831.647705,232.047897 2865.880859,250.437546 2899.451660,269.937439 
	C2943.996582,295.811859 2987.432373,323.533325 3029.006592,354.020935 
	C3058.202393,375.430939 3087.269043,397.029633 3115.982178,419.079803 
	C3134.154541,433.035278 3151.638184,447.894318 3169.299561,462.506348 
	C3178.768555,470.340637 3188.200684,478.249725 3197.229248,486.580536 
	C3217.235596,505.041473 3237.248779,523.510376 3256.750488,542.498352 
	C3277.249512,562.457642 3297.589844,582.617126 3317.200439,603.441467 
	C3337.450439,624.945435 3356.957275,647.164307 3376.378174,669.428955 
	C3391.663330,686.952576 3406.621582,704.782227 3421.176514,722.916199 
	C3435.095947,740.258240 3448.815918,757.805603 3461.721680,775.905945 
	C3486.788574,811.063232 3512.203613,846.037231 3535.635254,882.276550 
	C3557.618652,916.276184 3577.454834,951.679138 3597.787598,986.724426 
	C3608.449707,1005.101685 3618.437988,1023.887756 3628.210693,1042.758423 
	C3638.761719,1063.131104 3649.105469,1083.631470 3658.810303,1104.416626 
	C3670.203857,1128.817627 3681.275635,1153.392212 3691.632080,1178.247681 
	C3701.960449,1203.036255 3711.367188,1228.213745 3720.917725,1253.319702 
	C3727.758545,1271.302368 3734.668701,1289.285034 3740.657471,1307.559448 
	C3749.646240,1334.989380 3758.205811,1362.572510 3766.287109,1390.283203 
	C3773.062744,1413.515747 3778.966553,1437.004761 3785.102295,1460.420532 
	C3787.372314,1469.083740 3789.253174,1477.850586 3791.226318,1486.589478 
	C3796.120117,1508.263428 3801.371338,1529.867432 3805.713623,1551.652100 
	C3809.992188,1573.115356 3813.473389,1594.742310 3817.031494,1616.342529 
	C3819.564453,1631.718262 3821.797852,1647.147705 3823.881836,1662.591553 
	C3825.699463,1676.061279 3827.244141,1689.571289 3828.687744,1703.087036 
	C3830.588623,1720.883301 3832.297607,1738.700195 3834.029053,1756.514160 
	C3834.350342,1759.820068 3834.271484,1763.163940 3834.573486,1766.472534 
	C3835.657227,1778.345703 3836.963867,1790.200317 3837.898438,1802.084595 
	C3838.315674,1807.386719 3838.045898,1812.742554 3838.091553,1818.074097 
	C3838.115479,1820.890381 3838.485840,1823.483276 3842.000000,1824.000000 
	C3842.000000,1889.375122 3842.000000,1954.750244 3841.221191,2021.253418 
	C3839.649170,2025.425171 3838.320801,2028.442017 3838.165527,2031.518066 
	C3837.728516,2040.163696 3838.148438,2048.860107 3837.541260,2057.487793 
	C3836.657715,2070.043701 3835.188232,2082.558838 3833.936768,2095.088135 
	C3832.784180,2106.627441 3831.778809,2118.185303 3830.368652,2129.693359 
	C3828.433350,2145.489014 3826.192871,2161.247314 3824.052734,2177.017578 
	C3822.359619,2189.494385 3820.768311,2201.987305 3818.863037,2214.432129 
	C3816.758057,2228.181641 3814.352783,2241.885254 3812.068359,2255.607178 
	C3809.726807,2269.671387 3807.693848,2283.796875 3804.930664,2297.777832 
	C3802.488281,2310.135254 3799.191895,2322.322754 3796.333252,2334.599609 
	C3789.859863,2362.400391 3784.103516,2390.389893 3776.781250,2417.964355 
	C3769.465576,2445.514160 3760.824951,2472.722656 3752.341797,2499.948975 
	C3744.838135,2524.031250 3737.339111,2548.144287 3728.768066,2571.857178 
	C3718.942383,2599.041504 3708.407227,2625.995117 3697.315918,2652.689697 
	C3685.457275,2681.231201 3672.999268,2709.542969 3660.033203,2737.599365 
	C3649.864502,2759.603271 3638.810303,2781.214355 3627.630127,2802.729980 
	C3614.003662,2828.952637 3600.751709,2855.437256 3585.683105,2880.826416 
	C3563.288818,2918.558350 3540.249023,2955.964355 3515.968018,2992.501709 
	C3495.388428,3023.469482 3473.195312,3053.414795 3450.729492,3083.064697 
	C3429.071045,3111.648926 3406.638672,3139.685303 3383.628662,3167.195068 
	C3364.884766,3189.604492 3345.062988,3211.137207 3325.211914,3232.589355 
	C3303.345947,3256.218994 3281.791748,3280.146729 3257.670410,3301.632080 
	C3236.823242,3320.200928 3216.885498,3339.786377 3196.295410,3358.649414 
	C3184.039307,3369.877686 3171.579590,3380.920166 3158.714355,3391.438232 
	C3137.364014,3408.893311 3115.976074,3426.340820 3093.943848,3442.914062 
	C3063.677002,3465.681885 3032.947510,3487.846436 3002.105225,3509.833252 
	C2988.584473,3519.472168 2974.418945,3528.230713 2960.328857,3537.041992 
	C2935.524658,3552.553955 2910.797119,3568.213135 2885.578857,3583.029785 
	C2864.084717,3595.657227 2842.135010,3607.548584 2820.044678,3619.112061 
	C2792.372803,3633.597412 2764.524170,3647.771973 2736.417969,3661.390869 
	C2718.802002,3669.927002 2700.649658,3677.381348 2682.597168,3684.986328 
	C2658.414551,3695.173340 2634.256104,3705.451660 2609.789551,3714.922363 
	C2585.625732,3724.275635 2561.156494,3732.858154 2536.696777,3741.422607 
	C2520.093750,3747.236328 2503.385498,3752.805176 2486.527344,3757.821533 
	C2463.608154,3764.641846 2440.598633,3771.208252 2417.448730,3777.190186 
	C2391.097412,3783.999268 2364.554932,3790.068848 2338.083984,3796.411621 
	C2326.146240,3799.272461 2314.226318,3802.233887 2302.215088,3804.752441 
	C2289.552246,3807.408203 2276.812988,3809.721680 2264.065430,3811.946045 
	C2248.058838,3814.739502 2232.017090,3817.334229 2215.976318,3819.927734 
	C2207.141602,3821.356445 2198.297607,3822.759277 2189.422607,3823.901367 
	C2175.940918,3825.636475 2162.418701,3827.056641 2148.931885,3828.755127 
	C2136.106445,3830.370850 2123.347412,3832.674316 2110.481934,3833.777832 
	C2089.326416,3835.591553 2068.109619,3836.689697 2046.916748,3838.062988 
	C2043.937622,3838.256104 2040.671021,3837.810547 2040.000000,3842.000000 
	C1961.291504,3842.000000 1882.583130,3842.000000 1802.753418,3841.230957 
	C1799.593750,3839.666992 1797.610718,3838.451172 1795.504272,3838.174805 
	C1792.221558,3837.743652 1788.840210,3838.131592 1785.526855,3837.856201 
	C1770.993530,3836.647461 1756.460327,3835.420166 1741.944580,3834.018066 
	C1726.104004,3832.488037 1710.265259,3830.907471 1694.458374,3829.067627 
	C1681.952393,3827.612061 1669.483398,3825.818115 1657.020508,3824.018555 
	C1639.958374,3821.554688 1622.887329,3819.126465 1605.876343,3816.340576 
	C1590.181885,3813.770264 1574.515747,3810.977051 1558.919434,3807.868408 
	C1537.106689,3803.520996 1515.317139,3799.026123 1493.616699,3794.153076 
	C1473.860596,3789.716553 1454.192993,3784.863281 1434.568237,3779.871338 
	C1418.171265,3775.700684 1401.832275,3771.273682 1385.580200,3766.570801 
	C1371.243408,3762.422119 1357.022583,3757.858887 1342.822388,3753.256836 
	C1322.932983,3746.811279 1302.985107,3740.511230 1283.292236,3733.502930 
	C1260.831421,3725.509766 1238.574829,3716.932129 1216.321411,3708.369629 
	C1200.511475,3702.286377 1184.618042,3696.332031 1169.177979,3689.394287 
	C1139.184692,3675.916992 1109.418945,3661.926025 1079.685669,3647.879639 
	C1061.089478,3639.094238 1042.340942,3630.517090 1024.338745,3620.613525 
	C989.721985,3601.569824 955.138000,3582.390625 921.365723,3561.906982 
	C879.039062,3536.234863 837.429749,3509.365723 797.961365,3479.355469 
	C773.380005,3460.665039 748.745972,3442.043701 724.100159,3423.438232 
	C688.240112,3396.366943 654.876526,3366.337402 621.596008,3336.255615 
	C601.619751,3318.199463 582.536926,3299.143311 563.307617,3280.276611 
	C552.386292,3269.562012 541.955627,3258.345703 531.347290,3247.313965 
	C522.820862,3238.446777 514.076050,3229.767822 505.928070,3220.563232 
	C489.187897,3201.650635 472.652313,3182.552246 456.277832,3163.321533 
	C441.628326,3146.116699 426.754547,3129.058105 412.975159,3111.167969 
	C393.324768,3085.655518 374.463959,3059.530029 355.481476,3033.509033 
	C327.070801,2994.563721 300.774689,2954.215576 276.365601,2912.649170 
	C264.759308,2892.884521 253.220581,2873.072510 242.093231,2853.036621 
	C232.106232,2835.054199 222.563141,2816.819092 213.120087,2798.542480 
	C203.221497,2779.384766 193.296066,2760.224609 184.080627,2740.735107 
	C174.848007,2721.209229 166.171692,2701.404053 157.803650,2681.489502 
	C146.366302,2654.270508 135.123383,2626.959717 124.429718,2599.442383 
	C117.588142,2581.837402 111.658913,2563.864258 105.734390,2545.919678 
	C98.246742,2523.240479 90.894272,2500.508789 84.006325,2477.642090 
	C75.970642,2450.965332 67.897972,2424.273193 60.950993,2397.302246 
	C53.914379,2369.983154 48.140553,2342.336182 41.994392,2314.792236 
	C38.527096,2299.253662 34.836685,2283.729004 32.285252,2268.029541 
	C27.658815,2239.562012 23.696913,2210.983643 19.668943,2182.422119 
	C16.337292,2158.798096 12.782666,2135.186279 10.307039,2111.466553 
	C8.138589,2090.689697 7.321236,2069.771484 5.939991,2048.913574 
	C5.742269,2045.927979 6.180827,2042.674072 2.000000,2042.000000 
	C2.000000,1963.291504 2.000000,1884.583130 2.762065,1804.734863 
	C4.300081,1802.224976 5.656920,1800.897095 5.760828,1799.477661 
	C6.657193,1787.232666 7.163009,1774.958374 8.111935,1762.718140 
	C9.059756,1750.492188 10.266627,1738.282837 11.575694,1726.089355 
	C12.885308,1713.890625 14.469535,1701.721313 15.919427,1689.537598 
	C17.525692,1676.039673 19.090281,1662.536621 20.725834,1649.042236 
	C21.403814,1643.448364 22.047293,1637.841431 23.005882,1632.292236 
	C25.263443,1619.223145 27.646801,1606.175171 30.077742,1593.136963 
	C34.393356,1569.990356 38.437618,1546.785767 43.240578,1523.739868 
	C47.707836,1502.304688 52.874622,1481.010620 57.998859,1459.718384 
	C62.118065,1442.602173 66.140106,1425.436646 71.084366,1408.550537 
	C79.483711,1379.864136 88.425613,1351.333252 97.430794,1322.828857 
	C102.931129,1305.418579 108.290039,1287.912964 114.916328,1270.919556 
	C129.521729,1233.463257 144.509567,1196.144775 160.079865,1159.080200 
	C170.491119,1134.296631 181.769073,1109.853027 193.405411,1085.615356 
	C203.903702,1063.748413 214.985718,1042.133911 226.584122,1020.829224 
	C243.277435,990.165833 260.042633,959.507996 277.950836,929.549377 
	C294.485992,901.887756 312.188171,874.897400 330.086426,848.085327 
	C344.840149,825.983704 360.083649,804.160706 376.099518,782.961731 
	C397.730896,754.329956 419.854675,726.040527 442.618439,698.302795 
	C462.850555,673.649780 484.200562,649.912048 505.157196,625.857483 
	C509.735565,620.602295 514.810974,615.783508 519.530090,610.646729 
	C529.872925,599.388672 539.799438,587.726135 550.518127,576.841492 
	C562.380615,564.795410 574.819397,553.305786 587.216553,541.799438 
	C613.283142,517.605835 639.191895,493.229065 665.736938,469.568695 
	C683.587402,453.658142 702.033936,438.354218 720.900452,423.660645 
	C748.159058,402.431183 775.746704,381.595245 803.743347,361.351196 
	C828.234558,343.641846 853.001221,326.219147 878.521484,310.051422 
	C909.956055,290.136810 942.092407,271.299042 974.313354,252.666763 
	C999.037354,238.369736 1024.074341,224.548767 1049.500854,211.550385 
	C1074.944214,198.543411 1100.900879,186.507126 1126.897339,174.624939 
	C1151.664062,163.304825 1176.446777,151.894363 1201.809082,142.032227 
	C1238.045654,127.941681 1274.672974,114.811401 1311.410889,102.071114 
	C1334.895142,93.927040 1358.863281,87.171211 1382.649780,79.909027 
	C1391.206787,77.296539 1399.848999,74.956604 1408.484253,72.609245 
	C1426.429932,67.730949 1444.337524,62.694019 1462.371826,58.164574 
	C1480.711182,53.558487 1499.147583,49.318386 1517.611572,45.235165 
	C1529.904541,42.516598 1542.304077,40.264397 1554.686157,37.967453 
	C1567.730469,35.547707 1580.816040,33.351456 1593.874146,31.005949 
	C1610.180420,28.077059 1626.403931,24.576620 1642.796631,22.271307 
	C1662.162720,19.547865 1681.779053,18.525415 1701.088135,15.498019 
	C1721.153198,12.352113 1741.249268,10.510863 1761.506348,9.890560 
	C1763.487305,9.829900 1765.452881,9.369588 1767.432983,9.166816 
	C1777.650757,8.120485 1787.856689,6.908419 1798.095703,6.138897 
	C1804.064941,5.690271 1810.088379,5.964213 1816.087402,5.910903 
	C1818.902344,5.885887 1821.502441,5.530988 1822.000000,2.000000 
M1714.039429,2413.000000 
	C1714.394043,2343.672607 1714.964478,2274.345459 1715.062500,2205.017822 
	C1715.350342,2001.351807 1715.450562,1797.685425 1715.624023,1594.019287 
	C1715.626343,1591.352661 1715.851318,1588.662109 1715.573242,1586.024780 
	C1715.138916,1581.907104 1716.744507,1579.137207 1720.062134,1576.774902 
	C1727.115356,1571.752930 1733.887695,1566.336914 1740.929688,1561.298706 
	C1838.474731,1491.512451 1935.950073,1421.628052 2033.656616,1352.068604 
	C2074.636963,1322.893921 2116.093018,1294.386353 2157.432617,1265.719482 
	C2160.438477,1263.635132 2163.068359,1260.039062 2168.551758,1260.881226 
	C2168.551758,1274.081055 2168.570312,1287.073486 2168.548828,1300.065918 
	C2168.269043,1469.064209 2167.999512,1638.062500 2167.659912,1807.060669 
	C2167.639160,1817.388184 2167.093994,1827.716309 2166.691650,1838.040161 
	C2166.609375,1840.153687 2166.072266,1842.249390 2165.640137,1845.025269 
	C2162.256104,1843.815918 2159.738770,1843.069458 2157.344482,1842.038086 
	C2110.251953,1821.749146 2063.198975,1801.369751 2016.079956,1781.142700 
	C1998.953125,1773.790527 1982.030396,1765.720093 1964.386353,1759.872437 
	C1937.885498,1751.089111 1912.863159,1755.042114 1891.551880,1774.098633 
	C1874.499756,1789.346436 1866.329834,1808.634644 1866.404907,1831.736206 
	C1866.774048,1945.401855 1866.893555,2059.068115 1867.112305,2172.734375 
	C1867.118652,2176.065918 1867.250244,2179.397705 1867.322754,2182.729248 
	C1868.282837,2226.815918 1916.039429,2256.113037 1953.074097,2248.920654 
	C1985.073242,2242.706299 2015.369019,2212.884766 2014.990234,2173.413574 
	C2014.296387,2101.086914 2014.680908,2028.749756 2014.616333,1956.416992 
	C2014.613159,1952.838257 2014.615967,1949.259399 2014.615967,1944.112793 
	C2020.674927,1946.251709 2025.376831,1947.610474 2029.836182,1949.532349 
	C2077.539062,1970.089478 2125.139160,1990.887817 2172.914062,2011.275879 
	C2189.721680,2018.448608 2206.517090,2026.193237 2224.051514,2031.002075 
	C2255.536865,2039.637207 2281.872070,2029.712769 2301.904297,2003.950806 
	C2312.544678,1990.266602 2316.264404,1974.469727 2316.252686,1957.152588 
	C2316.062744,1676.486084 2316.083740,1395.819336 2316.051758,1115.152710 
	C2316.051270,1111.819824 2316.037109,1108.485352 2315.936523,1105.154419 
	C2314.412109,1054.625732 2259.679199,1028.161377 2224.382568,1038.906860 
	C2210.691650,1043.074829 2198.958252,1050.406738 2187.560059,1058.549683 
	C2036.284424,1166.620483 1885.032837,1274.724609 1733.775879,1382.821533 
	C1689.321045,1414.591431 1644.895752,1446.402832 1600.403442,1478.120117 
	C1579.195312,1493.238647 1567.752319,1513.653320 1566.611938,1539.692749 
	C1566.218140,1548.679565 1566.124023,1557.684937 1566.113770,1566.682007 
	C1565.772827,1863.348267 1565.457031,2160.014404 1565.158936,2456.680664 
	C1565.154907,2460.675781 1565.295532,2464.680664 1565.583252,2468.665283 
	C1569.476562,2522.580322 1626.731934,2554.599121 1674.411621,2529.142334 
	C1698.980347,2516.024414 1711.969849,2494.630859 1713.562134,2466.987061 
	C1714.557495,2449.706299 1713.932495,2432.332275 1714.039429,2413.000000 
M2138.822998,2785.858154 
	C2155.211670,2781.441650 2171.867188,2777.823975 2187.937012,2772.453613 
	C2229.871094,2758.439941 2249.626465,2709.658691 2230.782959,2669.392578 
	C2219.350342,2644.961914 2186.960205,2621.839355 2147.716553,2630.699707 
	C2120.448486,2636.856201 2092.939697,2641.997803 2065.446533,2647.097900 
	C2017.896484,2655.918701 1969.859985,2661.403809 1921.614990,2663.572266 
	C1877.700317,2665.545898 1833.671753,2665.397705 1789.694946,2665.318848 
	C1776.483276,2665.294922 1763.102295,2663.237061 1750.099854,2660.616699 
	C1705.757202,2651.679932 1663.678101,2635.641602 1623.055176,2616.261963 
	C1560.231934,2586.291260 1497.965454,2555.146240 1435.625610,2524.171631 
	C1372.681641,2492.896973 1309.861328,2461.416748 1243.640259,2437.374268 
	C1196.165283,2420.137451 1147.780640,2406.929199 1097.174438,2403.536621 
	C1042.044556,2399.840820 987.261353,2402.658447 933.171143,2414.493164 
	C845.487000,2433.678223 766.325623,2471.062500 695.852966,2526.690674 
	C666.221680,2550.080322 638.224365,2575.214355 615.252686,2605.409912 
	C596.189270,2630.468018 594.923340,2657.680664 607.707764,2685.549072 
	C620.169861,2712.715576 643.649414,2723.948975 672.045166,2725.663086 
	C697.139648,2727.177979 717.270386,2716.513672 732.995117,2697.258545 
	C748.239197,2678.591797 765.471558,2661.938232 784.292786,2646.968262 
	C849.719910,2594.929932 923.586731,2563.240479 1006.933105,2553.395508 
	C1057.335938,2547.441895 1106.715088,2551.215088 1155.323364,2565.064209 
	C1192.874512,2575.763184 1229.144043,2590.250244 1264.294434,2607.062012 
	C1326.484741,2636.805908 1388.226440,2667.499023 1449.921753,2698.264404 
	C1513.416504,2729.926758 1576.743408,2761.854736 1643.827515,2785.574463 
	C1694.484131,2803.485596 1746.426270,2814.866943 1800.209961,2814.987305 
	C1855.846558,2815.111816 1911.537476,2814.372070 1967.014160,2809.463867 
	C1998.183105,2806.706055 2029.302002,2803.096680 2060.308350,2798.877441 
	C2086.028320,2795.377197 2111.550293,2790.423584 2138.822998,2785.858154 
M2598.415283,2616.338867 
	C2626.142090,2624.710449 2653.665283,2633.846191 2681.637207,2641.297607 
	C2743.342773,2657.734863 2806.390381,2666.344482 2870.073242,2669.053711 
	C2943.322266,2672.169678 3016.667969,2673.484131 3089.648438,2664.124023 
	C3125.300293,2659.551758 3160.825439,2653.930176 3196.331299,2648.299805 
	C3242.610840,2640.961182 3265.645752,2590.364990 3250.865723,2550.117432 
	C3238.244385,2515.747559 3201.940430,2495.503662 3165.695312,2502.986572 
	C3106.431641,2515.222168 3046.463379,2520.339355 2986.104492,2521.982422 
	C2943.759033,2523.135254 2901.540771,2520.714355 2859.277100,2518.344238 
	C2803.454834,2515.213379 2748.572510,2506.704102 2695.200439,2490.347168 
	C2628.364746,2469.863770 2561.926025,2448.072266 2495.438477,2426.469482 
	C2437.492676,2407.641846 2379.885498,2387.758545 2320.794678,2372.642578 
	C2258.674316,2356.750977 2195.658691,2346.402832 2131.651123,2342.666992 
	C2075.670898,2339.399902 2019.741211,2340.114746 1964.122559,2348.221924 
	C1938.415161,2351.968750 1912.917480,2356.735840 1888.140259,2364.951172 
	C1856.156982,2375.555908 1834.010986,2402.645020 1835.586670,2439.910645 
	C1837.565063,2486.696045 1882.819946,2521.384766 1927.885376,2508.197754 
	C1963.992798,2497.631592 2000.780640,2492.667480 2038.064819,2490.366455 
	C2098.270264,2486.650635 2157.881348,2492.708496 2217.125000,2502.773438 
	C2274.061035,2512.446777 2329.224609,2529.052979 2384.041748,2546.883301 
	C2454.965576,2569.952881 2525.922607,2592.919189 2598.415283,2616.338867 
z"/>
<path fill="#000000" opacity="0.000000" stroke="none" 
	d="
M3842.000000,1823.062744 
	C3838.485840,1823.483276 3838.115479,1820.890381 3838.091553,1818.074097 
	C3838.045898,1812.742554 3838.315674,1807.386719 3837.898438,1802.084595 
	C3836.963867,1790.200317 3835.657227,1778.345703 3834.573486,1766.472534 
	C3834.271484,1763.163940 3834.350342,1759.820068 3834.029053,1756.514160 
	C3832.297607,1738.700195 3830.588623,1720.883301 3828.687744,1703.087036 
	C3827.244141,1689.571289 3825.699463,1676.061279 3823.881836,1662.591553 
	C3821.797852,1647.147705 3819.564453,1631.718262 3817.031494,1616.342529 
	C3813.473389,1594.742310 3809.992188,1573.115356 3805.713623,1551.652100 
	C3801.371338,1529.867432 3796.120117,1508.263428 3791.226318,1486.589478 
	C3789.253174,1477.850586 3787.372314,1469.083740 3785.102295,1460.420532 
	C3778.966553,1437.004761 3773.062744,1413.515747 3766.287109,1390.283203 
	C3758.205811,1362.572510 3749.646240,1334.989380 3740.657471,1307.559448 
	C3734.668701,1289.285034 3727.758545,1271.302368 3720.917725,1253.319702 
	C3711.367188,1228.213745 3701.960449,1203.036255 3691.632080,1178.247681 
	C3681.275635,1153.392212 3670.203857,1128.817627 3658.810303,1104.416626 
	C3649.105469,1083.631470 3638.761719,1063.131104 3628.210693,1042.758423 
	C3618.437988,1023.887756 3608.449707,1005.101685 3597.787598,986.724426 
	C3577.454834,951.679138 3557.618652,916.276184 3535.635254,882.276550 
	C3512.203613,846.037231 3486.788574,811.063232 3461.721680,775.905945 
	C3448.815918,757.805603 3435.095947,740.258240 3421.176514,722.916199 
	C3406.621582,704.782227 3391.663330,686.952576 3376.378174,669.428955 
	C3356.957275,647.164307 3337.450439,624.945435 3317.200439,603.441467 
	C3297.589844,582.617126 3277.249512,562.457642 3256.750488,542.498352 
	C3237.248779,523.510376 3217.235596,505.041473 3197.229248,486.580536 
	C3188.200684,478.249725 3178.768555,470.340637 3169.299561,462.506348 
	C3151.638184,447.894318 3134.154541,433.035278 3115.982178,419.079803 
	C3087.269043,397.029633 3058.202393,375.430939 3029.006592,354.020935 
	C2987.432373,323.533325 2943.996582,295.811859 2899.451660,269.937439 
	C2865.880859,250.437546 2831.647705,232.047897 2797.365479,213.810165 
	C2755.360596,191.463913 2712.026367,171.830917 2668.210693,153.343369 
	C2643.162109,142.774475 2617.657227,133.264236 2592.202393,123.689529 
	C2569.538086,115.164406 2546.878662,106.522736 2523.823975,99.163879 
	C2491.565674,88.867348 2459.105957,79.110176 2426.427734,70.246307 
	C2395.729004,61.919304 2364.698242,54.772480 2333.692383,47.633324 
	C2309.779541,42.127304 2285.740967,37.115067 2261.642578,32.484772 
	C2241.783691,28.669060 2221.807373,25.369339 2201.786621,22.518034 
	C2183.079102,19.853758 2164.237793,18.139229 2145.468506,15.896150 
	C2130.661133,14.126570 2115.897949,11.958094 2101.069580,10.402879 
	C2090.182373,9.261023 2079.226562,8.734727 2068.291748,8.097185 
	C2054.376221,7.285862 2040.445801,6.723848 2026.536255,5.830293 
	C2024.447388,5.696094 2022.436768,4.342873 2020.195068,2.776781 
	C2627.187500,2.000000 3234.375244,2.000000 3842.000000,2.000000 
	C3842.000000,608.708374 3842.000000,1215.416870 3842.000000,1823.062744 
z"/>
<path fill="#000000" opacity="0.000000" stroke="none" 
	d="
M1821.062744,2.000000 
	C1821.502441,5.530988 1818.902344,5.885887 1816.087402,5.910903 
	C1810.088379,5.964213 1804.064941,5.690271 1798.095703,6.138897 
	C1787.856689,6.908419 1777.650757,8.120485 1767.432983,9.166816 
	C1765.452881,9.369588 1763.487305,9.829900 1761.506348,9.890560 
	C1741.249268,10.510863 1721.153198,12.352113 1701.088135,15.498019 
	C1681.779053,18.525415 1662.162720,19.547865 1642.796631,22.271307 
	C1626.403931,24.576620 1610.180420,28.077059 1593.874146,31.005949 
	C1580.816040,33.351456 1567.730469,35.547707 1554.686157,37.967453 
	C1542.304077,40.264397 1529.904541,42.516598 1517.611572,45.235165 
	C1499.147583,49.318386 1480.711182,53.558487 1462.371826,58.164574 
	C1444.337524,62.694019 1426.429932,67.730949 1408.484253,72.609245 
	C1399.848999,74.956604 1391.206787,77.296539 1382.649780,79.909027 
	C1358.863281,87.171211 1334.895142,93.927040 1311.410889,102.071114 
	C1274.672974,114.811401 1238.045654,127.941681 1201.809082,142.032227 
	C1176.446777,151.894363 1151.664062,163.304825 1126.897339,174.624939 
	C1100.900879,186.507126 1074.944214,198.543411 1049.500854,211.550385 
	C1024.074341,224.548767 999.037354,238.369736 974.313354,252.666763 
	C942.092407,271.299042 909.956055,290.136810 878.521484,310.051422 
	C853.001221,326.219147 828.234558,343.641846 803.743347,361.351196 
	C775.746704,381.595245 748.159058,402.431183 720.900452,423.660645 
	C702.033936,438.354218 683.587402,453.658142 665.736938,469.568695 
	C639.191895,493.229065 613.283142,517.605835 587.216553,541.799438 
	C574.819397,553.305786 562.380615,564.795410 550.518127,576.841492 
	C539.799438,587.726135 529.872925,599.388672 519.530090,610.646729 
	C514.810974,615.783508 509.735565,620.602295 505.157196,625.857483 
	C484.200562,649.912048 462.850555,673.649780 442.618439,698.302795 
	C419.854675,726.040527 397.730896,754.329956 376.099518,782.961731 
	C360.083649,804.160706 344.840149,825.983704 330.086426,848.085327 
	C312.188171,874.897400 294.485992,901.887756 277.950836,929.549377 
	C260.042633,959.507996 243.277435,990.165833 226.584122,1020.829224 
	C214.985718,1042.133911 203.903702,1063.748413 193.405411,1085.615356 
	C181.769073,1109.853027 170.491119,1134.296631 160.079865,1159.080200 
	C144.509567,1196.144775 129.521729,1233.463257 114.916328,1270.919556 
	C108.290039,1287.912964 102.931129,1305.418579 97.430794,1322.828857 
	C88.425613,1351.333252 79.483711,1379.864136 71.084366,1408.550537 
	C66.140106,1425.436646 62.118065,1442.602173 57.998859,1459.718384 
	C52.874622,1481.010620 47.707836,1502.304688 43.240578,1523.739868 
	C38.437618,1546.785767 34.393356,1569.990356 30.077742,1593.136963 
	C27.646801,1606.175171 25.263443,1619.223145 23.005882,1632.292236 
	C22.047293,1637.841431 21.403814,1643.448364 20.725834,1649.042236 
	C19.090281,1662.536621 17.525692,1676.039673 15.919427,1689.537598 
	C14.469535,1701.721313 12.885308,1713.890625 11.575694,1726.089355 
	C10.266627,1738.282837 9.059756,1750.492188 8.111935,1762.718140 
	C7.163009,1774.958374 6.657193,1787.232666 5.760828,1799.477661 
	C5.656920,1800.897095 4.300081,1802.224976 2.762065,1803.797607 
	C2.000000,1203.478394 2.000000,602.956787 2.000000,2.000000 
	C608.041748,2.000000 1214.083496,2.000000 1821.062744,2.000000 
z"/>
<path fill="#000000" opacity="0.000000" stroke="none" 
	d="
M2040.937256,3842.000000 
	C2040.671021,3837.810547 2043.937622,3838.256104 2046.916748,3838.062988 
	C2068.109619,3836.689697 2089.326416,3835.591553 2110.481934,3833.777832 
	C2123.347412,3832.674316 2136.106445,3830.370850 2148.931885,3828.755127 
	C2162.418701,3827.056641 2175.940918,3825.636475 2189.422607,3823.901367 
	C2198.297607,3822.759277 2207.141602,3821.356445 2215.976318,3819.927734 
	C2232.017090,3817.334229 2248.058838,3814.739502 2264.065430,3811.946045 
	C2276.812988,3809.721680 2289.552246,3807.408203 2302.215088,3804.752441 
	C2314.226318,3802.233887 2326.146240,3799.272461 2338.083984,3796.411621 
	C2364.554932,3790.068848 2391.097412,3783.999268 2417.448730,3777.190186 
	C2440.598633,3771.208252 2463.608154,3764.641846 2486.527344,3757.821533 
	C2503.385498,3752.805176 2520.093750,3747.236328 2536.696777,3741.422607 
	C2561.156494,3732.858154 2585.625732,3724.275635 2609.789551,3714.922363 
	C2634.256104,3705.451660 2658.414551,3695.173340 2682.597168,3684.986328 
	C2700.649658,3677.381348 2718.802002,3669.927002 2736.417969,3661.390869 
	C2764.524170,3647.771973 2792.372803,3633.597412 2820.044678,3619.112061 
	C2842.135010,3607.548584 2864.084717,3595.657227 2885.578857,3583.029785 
	C2910.797119,3568.213135 2935.524658,3552.553955 2960.328857,3537.041992 
	C2974.418945,3528.230713 2988.584473,3519.472168 3002.105225,3509.833252 
	C3032.947510,3487.846436 3063.677002,3465.681885 3093.943848,3442.914062 
	C3115.976074,3426.340820 3137.364014,3408.893311 3158.714355,3391.438232 
	C3171.579590,3380.920166 3184.039307,3369.877686 3196.295410,3358.649414 
	C3216.885498,3339.786377 3236.823242,3320.200928 3257.670410,3301.632080 
	C3281.791748,3280.146729 3303.345947,3256.218994 3325.211914,3232.589355 
	C3345.062988,3211.137207 3364.884766,3189.604492 3383.628662,3167.195068 
	C3406.638672,3139.685303 3429.071045,3111.648926 3450.729492,3083.064697 
	C3473.195312,3053.414795 3495.388428,3023.469482 3515.968018,2992.501709 
	C3540.249023,2955.964355 3563.288818,2918.558350 3585.683105,2880.826416 
	C3600.751709,2855.437256 3614.003662,2828.952637 3627.630127,2802.729980 
	C3638.810303,2781.214355 3649.864502,2759.603271 3660.033203,2737.599365 
	C3672.999268,2709.542969 3685.457275,2681.231201 3697.315918,2652.689697 
	C3708.407227,2625.995117 3718.942383,2599.041504 3728.768066,2571.857178 
	C3737.339111,2548.144287 3744.838135,2524.031250 3752.341797,2499.948975 
	C3760.824951,2472.722656 3769.465576,2445.514160 3776.781250,2417.964355 
	C3784.103516,2390.389893 3789.859863,2362.400391 3796.333252,2334.599609 
	C3799.191895,2322.322754 3802.488281,2310.135254 3804.930664,2297.777832 
	C3807.693848,2283.796875 3809.726807,2269.671387 3812.068359,2255.607178 
	C3814.352783,2241.885254 3816.758057,2228.181641 3818.863037,2214.432129 
	C3820.768311,2201.987305 3822.359619,2189.494385 3824.052734,2177.017578 
	C3826.192871,2161.247314 3828.433350,2145.489014 3830.368652,2129.693359 
	C3831.778809,2118.185303 3832.784180,2106.627441 3833.936768,2095.088135 
	C3835.188232,2082.558838 3836.657715,2070.043701 3837.541260,2057.487793 
	C3838.148438,2048.860107 3837.728516,2040.163696 3838.165527,2031.518066 
	C3838.320801,2028.442017 3839.649170,2025.425171 3841.221191,2022.190674 
	C3842.000000,2628.520264 3842.000000,3235.040283 3842.000000,3842.000000 
	C3241.958252,3842.000000 2641.916260,3842.000000 2040.937256,3842.000000 
z"/>
<path fill="#000000" opacity="0.000000" stroke="none" 
	d="
M2.000000,2042.937256 
	C6.180827,2042.674072 5.742269,2045.927979 5.939991,2048.913574 
	C7.321236,2069.771484 8.138589,2090.689697 10.307039,2111.466553 
	C12.782666,2135.186279 16.337292,2158.798096 19.668943,2182.422119 
	C23.696913,2210.983643 27.658815,2239.562012 32.285252,2268.029541 
	C34.836685,2283.729004 38.527096,2299.253662 41.994392,2314.792236 
	C48.140553,2342.336182 53.914379,2369.983154 60.950993,2397.302246 
	C67.897972,2424.273193 75.970642,2450.965332 84.006325,2477.642090 
	C90.894272,2500.508789 98.246742,2523.240479 105.734390,2545.919678 
	C111.658913,2563.864258 117.588142,2581.837402 124.429718,2599.442383 
	C135.123383,2626.959717 146.366302,2654.270508 157.803650,2681.489502 
	C166.171692,2701.404053 174.848007,2721.209229 184.080627,2740.735107 
	C193.296066,2760.224609 203.221497,2779.384766 213.120087,2798.542480 
	C222.563141,2816.819092 232.106232,2835.054199 242.093231,2853.036621 
	C253.220581,2873.072510 264.759308,2892.884521 276.365601,2912.649170 
	C300.774689,2954.215576 327.070801,2994.563721 355.481476,3033.509033 
	C374.463959,3059.530029 393.324768,3085.655518 412.975159,3111.167969 
	C426.754547,3129.058105 441.628326,3146.116699 456.277832,3163.321533 
	C472.652313,3182.552246 489.187897,3201.650635 505.928070,3220.563232 
	C514.076050,3229.767822 522.820862,3238.446777 531.347290,3247.313965 
	C541.955627,3258.345703 552.386292,3269.562012 563.307617,3280.276611 
	C582.536926,3299.143311 601.619751,3318.199463 621.596008,3336.255615 
	C654.876526,3366.337402 688.240112,3396.366943 724.100159,3423.438232 
	C748.745972,3442.043701 773.380005,3460.665039 797.961365,3479.355469 
	C837.429749,3509.365723 879.039062,3536.234863 921.365723,3561.906982 
	C955.138000,3582.390625 989.721985,3601.569824 1024.338745,3620.613525 
	C1042.340942,3630.517090 1061.089478,3639.094238 1079.685669,3647.879639 
	C1109.418945,3661.926025 1139.184692,3675.916992 1169.177979,3689.394287 
	C1184.618042,3696.332031 1200.511475,3702.286377 1216.321411,3708.369629 
	C1238.574829,3716.932129 1260.831421,3725.509766 1283.292236,3733.502930 
	C1302.985107,3740.511230 1322.932983,3746.811279 1342.822388,3753.256836 
	C1357.022583,3757.858887 1371.243408,3762.422119 1385.580200,3766.570801 
	C1401.832275,3771.273682 1418.171265,3775.700684 1434.568237,3779.871338 
	C1454.192993,3784.863281 1473.860596,3789.716553 1493.616699,3794.153076 
	C1515.317139,3799.026123 1537.106689,3803.520996 1558.919434,3807.868408 
	C1574.515747,3810.977051 1590.181885,3813.770264 1605.876343,3816.340576 
	C1622.887329,3819.126465 1639.958374,3821.554688 1657.020508,3824.018555 
	C1669.483398,3825.818115 1681.952393,3827.612061 1694.458374,3829.067627 
	C1710.265259,3830.907471 1726.104004,3832.488037 1741.944580,3834.018066 
	C1756.460327,3835.420166 1770.993530,3836.647461 1785.526855,3837.856201 
	C1788.840210,3838.131592 1792.221558,3837.743652 1795.504272,3838.174805 
	C1797.610718,3838.451172 1799.593750,3839.666992 1801.816040,3841.230957 
	C1202.145752,3842.000000 602.291626,3842.000000 2.000000,3842.000000 
	C2.000000,3242.625000 2.000000,2643.249756 2.000000,2042.937256 
z"/>
<path fill="#FDFDFD" opacity="1.000000" stroke="none" 
	d="
M1714.037109,2414.000000 
	C1713.932495,2432.332275 1714.557495,2449.706299 1713.562134,2466.987061 
	C1711.969849,2494.630859 1698.980347,2516.024414 1674.411621,2529.142334 
	C1626.731934,2554.599121 1569.476562,2522.580322 1565.583252,2468.665283 
	C1565.295532,2464.680664 1565.154907,2460.675781 1565.158936,2456.680664 
	C1565.457031,2160.014404 1565.772827,1863.348267 1566.113770,1566.682007 
	C1566.124023,1557.684937 1566.218140,1548.679565 1566.611938,1539.692749 
	C1567.752319,1513.653320 1579.195312,1493.238647 1600.403442,1478.120117 
	C1644.895752,1446.402832 1689.321045,1414.591431 1733.775879,1382.821533 
	C1885.032837,1274.724609 2036.284424,1166.620483 2187.560059,1058.549683 
	C2198.958252,1050.406738 2210.691650,1043.074829 2224.382568,1038.906860 
	C2259.679199,1028.161377 2314.412109,1054.625732 2315.936523,1105.154419 
	C2316.037109,1108.485352 2316.051270,1111.819824 2316.051758,1115.152710 
	C2316.083740,1395.819336 2316.062744,1676.486084 2316.252686,1957.152588 
	C2316.264404,1974.469727 2312.544678,1990.266602 2301.904297,2003.950806 
	C2281.872070,2029.712769 2255.536865,2039.637207 2224.051514,2031.002075 
	C2206.517090,2026.193237 2189.721680,2018.448608 2172.914062,2011.275879 
	C2125.139160,1990.887817 2077.539062,1970.089478 2029.836182,1949.532349 
	C2025.376831,1947.610474 2020.674927,1946.251709 2014.615967,1944.112793 
	C2014.615967,1949.259399 2014.613159,1952.838257 2014.616333,1956.416992 
	C2014.680908,2028.749756 2014.296387,2101.086914 2014.990234,2173.413574 
	C2015.369019,2212.884766 1985.073242,2242.706299 1953.074097,2248.920654 
	C1916.039429,2256.113037 1868.282837,2226.815918 1867.322754,2182.729248 
	C1867.250244,2179.397705 1867.118652,2176.065918 1867.112305,2172.734375 
	C1866.893555,2059.068115 1866.774048,1945.401855 1866.404907,1831.736206 
	C1866.329834,1808.634644 1874.499756,1789.346436 1891.551880,1774.098633 
	C1912.863159,1755.042114 1937.885498,1751.089111 1964.386353,1759.872437 
	C1982.030396,1765.720093 1998.953125,1773.790527 2016.079956,1781.142700 
	C2063.198975,1801.369751 2110.251953,1821.749146 2157.344482,1842.038086 
	C2159.738770,1843.069458 2162.256104,1843.815918 2165.640137,1845.025269 
	C2166.072266,1842.249390 2166.609375,1840.153687 2166.691650,1838.040161 
	C2167.093994,1827.716309 2167.639160,1817.388184 2167.659912,1807.060669 
	C2167.999512,1638.062500 2168.269043,1469.064209 2168.548828,1300.065918 
	C2168.570312,1287.073486 2168.551758,1274.081055 2168.551758,1260.881226 
	C2163.068359,1260.039062 2160.438477,1263.635132 2157.432617,1265.719482 
	C2116.093018,1294.386353 2074.636963,1322.893921 2033.656616,1352.068604 
	C1935.950073,1421.628052 1838.474731,1491.512451 1740.929688,1561.298706 
	C1733.887695,1566.336914 1727.115356,1571.752930 1720.062134,1576.774902 
	C1716.744507,1579.137207 1715.138916,1581.907104 1715.573242,1586.024780 
	C1715.851318,1588.662109 1715.626343,1591.352661 1715.624023,1594.019287 
	C1715.450562,1797.685425 1715.350342,2001.351807 1715.062500,2205.017822 
	C1714.964478,2274.345459 1714.394043,2343.672607 1714.037109,2414.000000 
z"/>
<path fill="#00FDE1" opacity="1.000000" stroke="none" 
	d="
M2137.991699,2785.985840 
	C2111.550293,2790.423584 2086.028320,2795.377197 2060.308350,2798.877441 
	C2029.302002,2803.096680 1998.183105,2806.706055 1967.014160,2809.463867 
	C1911.537476,2814.372070 1855.846558,2815.111816 1800.209961,2814.987305 
	C1746.426270,2814.866943 1694.484131,2803.485596 1643.827515,2785.574463 
	C1576.743408,2761.854736 1513.416504,2729.926758 1449.921753,2698.264404 
	C1388.226440,2667.499023 1326.484741,2636.805908 1264.294434,2607.062012 
	C1229.144043,2590.250244 1192.874512,2575.763184 1155.323364,2565.064209 
	C1106.715088,2551.215088 1057.335938,2547.441895 1006.933105,2553.395508 
	C923.586731,2563.240479 849.719910,2594.929932 784.292786,2646.968262 
	C765.471558,2661.938232 748.239197,2678.591797 732.995117,2697.258545 
	C717.270386,2716.513672 697.139648,2727.177979 672.045166,2725.663086 
	C643.649414,2723.948975 620.169861,2712.715576 607.707764,2685.549072 
	C594.923340,2657.680664 596.189270,2630.468018 615.252686,2605.409912 
	C638.224365,2575.214355 666.221680,2550.080322 695.852966,2526.690674 
	C766.325623,2471.062500 845.487000,2433.678223 933.171143,2414.493164 
	C987.261353,2402.658447 1042.044556,2399.840820 1097.174438,2403.536621 
	C1147.780640,2406.929199 1196.165283,2420.137451 1243.640259,2437.374268 
	C1309.861328,2461.416748 1372.681641,2492.896973 1435.625610,2524.171631 
	C1497.965454,2555.146240 1560.231934,2586.291260 1623.055176,2616.261963 
	C1663.678101,2635.641602 1705.757202,2651.679932 1750.099854,2660.616699 
	C1763.102295,2663.237061 1776.483276,2665.294922 1789.694946,2665.318848 
	C1833.671753,2665.397705 1877.700317,2665.545898 1921.614990,2663.572266 
	C1969.859985,2661.403809 2017.896484,2655.918701 2065.446533,2647.097900 
	C2092.939697,2641.997803 2120.448486,2636.856201 2147.716553,2630.699707 
	C2186.960205,2621.839355 2219.350342,2644.961914 2230.782959,2669.392578 
	C2249.626465,2709.658691 2229.871094,2758.439941 2187.937012,2772.453613 
	C2171.867188,2777.823975 2155.211670,2781.441650 2137.991699,2785.985840 
z"/>
<path fill="#00FDE1" opacity="1.000000" stroke="none" 
	d="
M2597.640381,2616.134277 
	C2525.922607,2592.919189 2454.965576,2569.952881 2384.041748,2546.883301 
	C2329.224609,2529.052979 2274.061035,2512.446777 2217.125000,2502.773438 
	C2157.881348,2492.708496 2098.270264,2486.650635 2038.064819,2490.366455 
	C2000.780640,2492.667480 1963.992798,2497.631592 1927.885376,2508.197754 
	C1882.819946,2521.384766 1837.565063,2486.696045 1835.586670,2439.910645 
	C1834.010986,2402.645020 1856.156982,2375.555908 1888.140259,2364.951172 
	C1912.917480,2356.735840 1938.415161,2351.968750 1964.122559,2348.221924 
	C2019.741211,2340.114746 2075.670898,2339.399902 2131.651123,2342.666992 
	C2195.658691,2346.402832 2258.674316,2356.750977 2320.794678,2372.642578 
	C2379.885498,2387.758545 2437.492676,2407.641846 2495.438477,2426.469482 
	C2561.926025,2448.072266 2628.364746,2469.863770 2695.200439,2490.347168 
	C2748.572510,2506.704102 2803.454834,2515.213379 2859.277100,2518.344238 
	C2901.540771,2520.714355 2943.759033,2523.135254 2986.104492,2521.982422 
	C3046.463379,2520.339355 3106.431641,2515.222168 3165.695312,2502.986572 
	C3201.940430,2495.503662 3238.244385,2515.747559 3250.865723,2550.117432 
	C3265.645752,2590.364990 3242.610840,2640.961182 3196.331299,2648.299805 
	C3160.825439,2653.930176 3125.300293,2659.551758 3089.648438,2664.124023 
	C3016.667969,2673.484131 2943.322266,2672.169678 2870.073242,2669.053711 
	C2806.390381,2666.344482 2743.342773,2657.734863 2681.637207,2641.297607 
	C2653.665283,2633.846191 2626.142090,2624.710449 2597.640381,2616.134277 
z"/>
</svg>